<svg fill="none" height="1080" viewBox="0 0 1080 1080" width="1080" xmlns="http://www.w3.org/2000/svg"><path d="m366.99 498.72c-.1 6.64-5.57 11.94-12.21 11.84l-122.12-1.87c-6.64-.1-11.94-5.57-11.84-12.21l1.49-97.61c.1-6.64 5.57-11.94 12.21-11.84l122.12 1.87c6.64.1 11.94 5.57 11.84 12.21z" fill="#486be3" opacity=".5"/><path d="m222.05 342.12c32.568 0 58.97-26.402 58.97-58.97s-26.402-58.97-58.97-58.97-58.97 26.402-58.97 58.97 26.402 58.97 58.97 58.97z" fill="#486be3"/><path d="m168.46 791.41c-38.27-.58-68.93-32.2-68.35-70.47s32.2-68.93 70.47-68.35 68.93 32.2 68.35 70.47-32.2 68.94-70.47 68.35zm2.1-137.17c-37.37-.57-68.23 29.36-68.8 66.73s29.36 68.23 66.73 68.8c37.36.57 68.23-29.36 68.8-66.73.57-37.36-29.37-68.23-66.73-68.8z" fill="#486be3"/><path d="m556.53 1022.65c238.007 0 430.95-24.938 430.95-55.7s-192.943-55.7-430.95-55.7-430.95 24.938-430.95 55.7 192.943 55.7 430.95 55.7z" fill="#0e538c" opacity=".25"/><path d="m690.78 886.73c-3.92 0-7.11-3.18-7.11-7.11v-772.34c0-3.92 3.18-7.11 7.11-7.11 3.92 0 7.11 3.18 7.11 7.11v772.34c-.01 3.93-3.19 7.11-7.11 7.11z" fill="#d3d3d3"/><path d="m700.27 970.06h-20.22c-2.02 0-3.68-1.65-3.68-3.68v-117.72c0-2.02 1.65-3.68 3.68-3.68h20.22c2.02 0 3.68 1.65 3.68 3.68v117.72c-.01 2.02-1.66 3.68-3.68 3.68z" fill="#0e538c"/><path d="m627.62 965.55v-20.22c0-2.02 1.65-3.68 3.68-3.68h117.72c2.02 0 3.68 1.65 3.68 3.68v20.22c0 2.02-1.65 3.68-3.68 3.68h-117.72c-2.02 0-3.68-1.65-3.68-3.68z" fill="#0e538c"/><path d="m840.42 154.37h-300.52c-4.14 0-7.52-3.19-7.52-7.09s3.38-7.09 7.52-7.09h300.52c4.14 0 7.52 3.19 7.52 7.09s-3.38 7.09-7.52 7.09z" fill="#486be3"/><path d="m840.42 522.53h-300.52c-4.14 0-7.52-3.19-7.52-7.09s3.38-7.09 7.52-7.09h300.52c4.14 0 7.52 3.19 7.52 7.09s-3.38 7.09-7.52 7.09z" fill="#486be3"/><path d="m840.42 154.37h-300.52v353.97h300.52z" fill="#fff"/><path d="m690.16 235.63c-52.87 0-95.73 42.86-95.73 95.73s42.86 95.73 95.73 95.73 95.73-42.86 95.73-95.73h-95.73z" fill="#0e538c"/><path d="m697.88 228.64v95.73h95.73c.01-52.87-42.85-95.73-95.73-95.73z" fill="#486be3"/><path d="m431.37 232.16c.81 8.01 1.78 16 2.9 23.94 1.09 7.95 2.36 15.86 3.89 23.69 3.02 15.66 7.03 31.1 12.86 45.69 5.83 14.53 13.74 28.29 24.97 38.76 5.63 5.17 12.12 9.38 19.23 12.34 7.1 2.99 14.84 4.66 22.74 5.12 1.5.09 2.65 1.37 2.56 2.87-.08 1.41-1.24 2.51-2.62 2.56-8.42.28-17.03-.73-25.28-3.34-8.25-2.59-16.02-6.82-22.89-12.15-6.87-5.34-12.75-11.81-17.83-18.73-5.08-6.93-9.38-14.35-13.11-21.97-3.74-7.62-6.87-15.48-9.62-23.43s-5.13-15.99-7.21-24.08c-2.04-8.1-3.81-16.24-5.38-24.41-1.55-8.17-2.87-16.36-4.06-24.55-.76-5.19 2.84-10.02 8.03-10.77 5.19-.76 10.02 2.84 10.77 8.03.02.13.03.25.05.38z" fill="#fab9af"/><path d="m453.12 293-15.07 15.37-2.91 2.97s-20.73-31.27-22.16-50.79c-.69-9.36-3.8-17.95-3.63-24.69.08-3.33.96-6.2 3.33-8.48 2.34-2.28 6.13-3.97 12.02-4.98 1.25-.21 6.95 5.71 8.95 10.43.05.11.09.24.13.39 1.79 6.1.58 42.34 19.34 59.78z" fill="#f4b251"/><path d="m310.69 848.96s-16.75 38.54-20.06 44.88c-2.73 5.23-7.93 8.46-12.87 11.69-1.58 1.03-3.28 3.53-4.71 5.63-1.15 1.69-1.27 3.78-.62 5.72 11.36 33.86 48.52 48.39 49.47 45.9 1.72-4.5-3.6-13.78-11.34-18.58-7.79-4.82-12.12-13.72-12.21-22.89-.07-7.29 1.74-14.48 5.25-20.86l24.76-40.65z" fill="#fa968c"/><path d="m452 842.72 12.5 49.47c2.87 12.73 1.06 26.1-5.06 37.62v.01c-3.44 6.44-.38 14.42 6.5 16.88 22.24 7.93 65.36 23.02 67.28 21.39 9.8-8.31-16.11-21.99-35.26-36.39-12.91-9.71-17.53-72.96-18.68-107.65l-20.85 23.19c-1.61.46-5.98-6.12-6.43-4.52z" fill="#fa968c"/><path d="m493.59 943.55c9.21 3.03 19.3 4.01 28.55 5.15 1.06.13 2.08.54 2.92 1.2 8.87 6.87 13.35 13.79 8.15 18.2-1.75 1.48-35.71 1.86-60.87-19.11-1.06-.88-2.55 11.08-2.55 11.08l-11.7-1.44s-3.33-20.06-1.26-23.93l3.77-7.05c10.33 6.56 21.32 12.06 32.99 15.9z" fill="#0e538c"/><path d="m393.78 436.3c-24.57 2.66-46.22 30.29-42.8 61.92 1.96 18.18 17 83.47 34.09 135.22 6.56 19.86 3.03 42.08-10.74 57.82-2.24 2.56-4.2 5.23-5.78 7.95-8.13 14.01-40.22 97.23-59.25 152.82 1.18 7.38 5.3 16.81 10.71 20.2 32.05-46.76 84.43-132.3 93.07-147.2 4.8-8.28 10.06-17.86 13.95-26.88 20.62-25.76 20.9-172.92 17.73-202.27-3.42-31.63-26.4-62.23-50.98-59.58z" fill="#fa968c"/><path d="m478.51 851.07c1.16-.71 1.81-2.03 1.77-3.38-1.56-54.31-4.86-123.53-6.06-136.8-.14-1.52-.32-3.01-.54-4.48 11.64-64.2 13.4-202.21 14.55-226.38 1.52-31.78-17.62-67.64-42.31-68.82s-51.49 24.37-59.42 53.49c-5.23 19.21 15 121.46 36.91 195.57 4.61 15.6 5.34 32.01 3.02 48.11-1.61 11.14-2.09 22.61-1.3 31.38 1.18 13.06 15.8 66.22 29.51 111.74.4 1.32 1.45 2.36 2.79 2.66 7.11 1.55 14.52.9 21.08-3.09z" fill="#fa968c"/><g fill="#0e538c"><path d="m297.19 935.57c6.51 6.88 14.7 12.34 22.09 17.56.85.6 1.53 1.43 1.96 2.39 4.5 10.15 5.22 18.34-1.2 19.9-2.16.52-31.36-14.58-43.45-44.67-.51-1.26-7.16 8.69-7.16 8.69l-9.35-6.6s6.17-19.36 9.67-21.86l6.39-4.56c5.87 10.54 12.8 20.43 21.05 29.15z"/><path d="m485.56 695.29h-126.06s-90.88-293.16 49.84-293.16 76.22 206.68 76.22 293.16z"/><path d="m359.317 259.388c20.809-.718 36.926-23.064 36-49.912-.927-26.847-18.547-48.028-39.356-47.31-20.808.719-36.926 23.065-35.999 49.912s18.547 48.028 39.355 47.31z"/><path d="m393.1 144.92s21.66 12.61 19.7 30.67c0 0 11.05-8.41 12.66-36.12 1.12-19.19-32.36 5.45-32.36 5.45z"/></g><path d="m442.81 340.68c3.97-26.66-15.04-61.49-19.52-78.68-2.87-11.01-3.07-35.87-3.07-35.87l-68.04 11.09c-12.06 2.1-20.26 13.38-18.51 25.5 3.06 21.18 21.12 67.43 30.95 91.58z" fill="#fab9af"/><path d="m361.86 387.7c1.93-11.22 1.09-22.72-2.43-33.55-8.16-25.14-23.03-72.59-26.03-93.31-1.6-11.07 5.91-21.37 16.93-23.29l10.79-1.88c5.77 8.82 15.75 14.66 29.29 12.3 9.45-1.64 15.39-6.08 18.94-12.11 1.51-2.57 2.59-5.42 3.33-8.48 2.34-2.28 6.13-3.97 12.02-4.98 1.25-.21 6.95 5.71 8.95 10.43.05.11.09.24.13.39-4.47 18.33-10.4 34.62 6.5 45.97-1.05 10.12-1.75 20.24-2.23 29.18-.13 2.59-.25 5.08-.35 7.44-.6 14.26 11.43 44.61 19.1 56.65 5.25 8.23 18.58 51.99 23.09 62.47l-137.12 8.36z" fill="#486be3"/><path d="m400.13 234.04-33.6 2.28 4.15-37.93 21.8-1.08z" fill="#fab9af"/><path d="m392.48 197.31-21.8 1.08-1.3 11.84c5.72 4.56 13.88 15.12 21.65 13.77 2.46-.43 4.59-1.52 6.38-3.15z" fill="#fa968c"/><path d="m395.05 215.53c-7.35.25-15.43-3.15-26.71-12.34-6.48-5.28-11.47-14.7-11.69-21.17l-1.24-35.8 55.11-1.9s4.79 18.86 1.43 37.86c-2.52 14.26-11.12 33.15-16.9 33.35z" fill="#fab9af"/><path d="m361.66 178.45c1.2 6.89-1.12 13.04-5.19 13.75s-10.12-7.53-11.32-14.42 2.91-9.8 6.98-10.51c4.06-.71 8.33 4.3 9.53 11.18z" fill="#fab9af"/><path d="m348.77 150.79c-.39-11.18 8.37-20.55 19.54-20.93l18.6-.63c5.32-.18 10.43-1.75 14.87-4.48 6.44-3.95 14.77-3 19.46 2.92 5.07 6.4 7.46 15.12-4.53 23.68-5.96 4.26-15.04.08-20.91 2.23-.37 0-.7-.05-1.08-.04l-16.4.57c-5.7.2-9.9 5-9.86 10.71.02 3.61-2.83 6.6-6.46 6.72l-.73.03-2.91-8.32-8.73 12.66z" fill="#0e538c"/><path d="m531.06 370.21s-18.87 4.59-19.38 10.82.29 10.5 9.32 11.58 21.94-1.75 29.34-4.99 17.51-13.91 17.83-15.77c1.19-6.76-11.59.52-17.96 3.75-6.36 3.22-13.87 6.23-14.56 2.73s11.97-8.76 12.51-13.03c.55-4.28-17.1 4.91-17.1 4.91z" fill="#fab9af"/><path d="m406.39 143.83c-1.57 8.24 1.32 12.62-25.05 26.31-26.36 13.69-35.04 8.53-42.93 22.56 0 0 2.87-22.89 17.41-31.21s40.04-14.32 47.65-32.69c0 0 3.99 9.4 2.92 15.03z" fill="#0e538c"/><path d="m351.26 252.12-.52 1.68-.53 1.83c-.35 1.23-.68 2.48-1.02 3.74-.67 2.51-1.28 5.04-1.84 7.59-1.13 5.09-2.03 10.23-2.74 15.37-1.46 10.27-1.95 20.61-1.03 30.6.96 9.94 3.34 19.61 8.09 27.67 2.35 4.04 5.25 7.68 8.69 10.79 3.44 3.1 7.42 5.68 11.78 7.73 8.72 4.14 18.91 5.91 29.23 6.44 5.19.18 10.43.16 15.7-.26 1.32-.11 2.64-.14 3.96-.28l3.96-.4c2.65-.22 5.29-.67 7.93-1.01 10.58-1.54 21.13-3.9 31.6-6.64 10.49-2.71 20.87-5.95 31.23-9.34l.03-.01c1.43-.47 2.96.31 3.43 1.74.44 1.34-.23 2.78-1.49 3.33-20.16 8.84-40.95 16.62-62.85 21.47-10.94 2.42-22.18 4.09-33.7 4.25-5.76.09-11.6-.27-17.45-1.12-5.85-.84-11.73-2.32-17.43-4.6-5.69-2.28-11.23-5.35-16.1-9.37-4.89-4-9.13-8.82-12.53-14.08-1.73-2.62-3.19-5.38-4.53-8.18-1.26-2.82-2.41-5.68-3.33-8.59-1.87-5.8-3.13-11.7-3.88-17.59-1.42-11.79-1.13-23.47.16-34.9.65-5.72 1.62-11.38 2.78-16.99.58-2.81 1.22-5.6 1.93-8.39.36-1.39.74-2.79 1.14-4.18l.62-2.11.7-2.23c1.57-5 6.9-7.79 11.91-6.22 5 1.57 7.79 6.9 6.22 11.91z" fill="#fab9af"/><path d="m401.29 145.54s1.97 27.51 26.5 39.91c0 0-11.33-20.45-11.07-34.09s-17.34-15.18-15.43-5.82z" fill="#0e538c"/><path d="m503.42 339.96s-16.55-4.07-18.41 2.42c-1.86 6.48-2.19 11.48 4.98 16.97s18.41 8.61 25.24 8.64c6.82.04 17.59-6.66 18.29-8.51 2.54-6.73-9.64-4.98-15.61-4.54s-12.83.1-12.58-4.01 11.85-3.74 13.28-8.09c1.42-4.37-15.19-2.88-15.19-2.88z" fill="#fab9af"/><path d="m477.61 347.83 7.5 18.75-5.16 2.35-6.09-19.69z" fill="#d3d3d3"/><path d="m348.54 315.36-23.59 10.17s-7.36-36.79-1.3-55.4 1.08-38.09 29.21-29.86c4.34 2.6-15.35 51.29-4.32 75.09z" fill="#486be3"/><path d="m355.72 189.8v6.71" stroke="#d3d3d3" stroke-miterlimit="10" stroke-width="2"/><path d="m355.72 206.1c.834 0 1.51-2.149 1.51-4.8s-.676-4.8-1.51-4.8-1.51 2.149-1.51 4.8.676 4.8 1.51 4.8z" stroke="#d3d3d3" stroke-miterlimit="10" stroke-width="2"/></svg>