<svg fill="none" height="583" viewBox="0 0 596 583" width="596" xmlns="http://www.w3.org/2000/svg" xmlns:xlink="http://www.w3.org/1999/xlink"><clipPath id="a"><path d="m0 0h595.3v582.4h-595.3z"/></clipPath><g clip-path="url(#a)"><path d="m70.4 449.2c41.974 0 76-34.026 76-76s-34.026-76-76-76c-41.9736 0-75.99998 34.026-75.99998 76s34.02638 76 75.99998 76z" fill="#b2dff8"/><path d="m70.4 523.4c-1 0-1.7-.8-1.7-1.7v-148.5c0-1 .8-1.7 1.7-1.7s1.7.8 1.7 1.7v148.5c0 .9-.8 1.7-1.7 1.7z" fill="#cce9fb"/><path d="m70.4 414.3c-.4 0-.9-.2-1.2-.5l-21.3-21.3c-.7-.7-.7-1.8 0-2.5s1.8-.7 2.5 0l21.3 21.3c.7.7.7 1.8 0 2.5-.4.3-.9.5-1.3.5z" fill="#cce9fb"/><path d="m70.4 434.1c-.4 0-.9-.2-1.2-.5l-21.3-21.3c-.7-.7-.7-1.8 0-2.5s1.8-.7 2.5 0l21.3 21.3c.7.7.7 1.8 0 2.5-.4.3-.9.5-1.3.5z" fill="#cce9fb"/><path d="m604.2 320.9c21.8 11.8 36.5 34.8 36.5 61.3 0 38.5-31.2 69.7-69.7 69.7-29.7 0-55.1-18.6-65.1-44.7z" fill="#cce9fb"/><path d="m496.4 407.7c60.972 0 110.4-49.428 110.4-110.4s-49.428-110.4-110.4-110.4-110.4 49.428-110.4 110.4 49.428 110.4 110.4 110.4z" fill="#b2dff8"/><g fill="#cce9fb"><path d="m496.4 515.4c-1.4 0-2.5-1.1-2.5-2.5v-215.6c0-1.4 1.1-2.5 2.5-2.5s2.5 1.1 2.5 2.5v215.6c.1 1.3-1.1 2.5-2.5 2.5z"/><path d="m496.4 356.9c-.6 0-1.3-.2-1.8-.7l-30.9-30.9c-1-1-1-2.6 0-3.6s2.6-1 3.6 0l30.9 30.9c1 1 1 2.6 0 3.6-.5.5-1.1.7-1.8.7z"/><path d="m496.4 385.6c-.6 0-1.3-.2-1.8-.7l-30.8-30.9c-1-1-1-2.6 0-3.6s2.6-1 3.6 0l30.9 30.9c1 1 1 2.6 0 3.6-.6.5-1.2.7-1.9.7z"/><path d="m570.6 515.3c-1.2-.2-2.1-1.4-2.1-2.6v-113c0-1.4 1-2.6 2.4-2.7 1.5-.1 2.7 1.1 2.7 2.5v113.2c0 1.7-1.4 2.9-3 2.6z"/><path d="m571.1 416.1c-.6 0-1.3-.2-1.8-.7-1-1-1-2.6 0-3.6l22.3-22.3c1-1 2.6-1 3.6 0s1 2.6 0 3.6l-22.3 22.3c-.6.5-1.2.7-1.8.7z"/><path d="m571.1 436.8c-.6 0-1.3-.2-1.8-.7-1-1-1-2.6 0-3.6l22.3-22.3c1-1 2.6-1 3.6 0s1 2.6 0 3.6l-22.3 22.3c-.6.5-1.2.7-1.8.7z"/></g><path d="m506.2 103.6c28.608 0 51.8-23.1917 51.8-51.8 0-28.6084-23.192-51.8-51.8-51.8s-51.8 23.1916-51.8 51.8c0 28.6083 23.192 51.8 51.8 51.8z" fill="#fabb56"/><path d="m246.7 157.5s-4.1 2.8-2 7.5c2 4.7 11 18.7 23.1 18.2.5 0-15.2-25.7-15.2-25.7z" fill="#01384f"/><path d="m228.2 415.1s-15.1-13.5-20-11.1c-5.9 3-39.8 36.1-38.4 51.7.5 6.4 8 .9 21.3-12.8 13.3-13.8 30-7.9 30-7.9z" fill="#01384f"/><path d="m264.9 437.9-18.2-10.9s-47.3 44.3-39.9 50.3c5.6 4.5 8.9.5 22.2-13.3s30.1-5.8 30.1-5.8z" fill="#01384f"/><path d="m376.4 292 3.4 48.6-76-19.8z" fill="#f3a582"/><path d="m303.8 322.5s66.4 4.2 75.3 1.2c0 0 13 127.6-10.1 141.3-23.1 13.8-75-6.4-75-6.4l14-27.5 30.2-2v-49.1l-2.2.5z" fill="#2a94f4"/><path d="m220.6 409.5s-16.7 6.9-11.3 23.6c0 0 57 44.7 84.8 34.4 15.6-5.8 32.3-49.9 43.9-87.6l41.1-56.2s-19.4 1-25.9.9c-12.4 0-49.4-2.2-49.4-2.2s-19.4 101.3-26.3 103.7c-6.8 2.6-56.9-16.6-56.9-16.6z" fill="#2a94f4"/><path d="m319.3 195.5s39.8-37.4 46.7-47.2 21.6-42.8 39.8-56.5l-8.8-18.8s5.4-2.9 8.8 4.9c0 0 12.8-25.6 15.7-25.1 3 .5-5.9 19.7-5.9 19.7s12.3-17.7 15.7-17.2-8.9 19.9-8.9 19.9 13.8-16 15.7-14c2 2-10.8 14-10.8 14s13.8-7.9 15.2-5.3c1.5 2.6-13.8 9.5-13.8 9.5s-1.5 11.3-10.8 16.2c0 0-18.5 50-35.2 66.2l-53.7 55.8z" fill="#facbb6"/><path d="m271.8 214.8s-37.7 39.5-47.6 46.3-43 21.2-56.9 39.3l-18.6-9s-3 5.4 4.8 8.9c0 0-25.7 12.5-25.2 15.5s19.7-5.7 19.7-5.7-17.8 12.1-17.4 15.6c.5 3.4 20-8.7 20-8.7s-16.1 13.6-14.1 15.6c1.9 2 14.1-10.7 14.1-10.7s-8 13.7-5.4 15.2 9.6-13.7 9.6-13.7 11.3-1.4 16.3-10.7c0 0 47.3-18.8 63.7-35.4l58.9-41.7z" fill="#facbb6"/><path d="m285.9 199.1-19.1 18.7 4.8 21.1s18.8 45.1 21.6 56.1c4.4 17.1-2.7 43.2-2.7 43.2s31.9-2.6 60.9-3.6 38.5-10.3 38.5-10.3-25.1-83.7-42.5-107.2c-17.4-23.4-23.7-30.7-23.7-30.7l-25.6 5.6z" fill="#486be3"/><path d="m341.9 214.3 19.9-12.7s3-13.6-20.9-29.7l-28.1 17.6z" fill="#486be3"/><path d="m270.9 216.3c-10.9 1.5-30.8 29.2-33 29.1 0 0 14 22.9 25.1 23.6 0 0 48.8-58.5 7.9-52.7z" fill="#486be3"/><path d="m309.4 198.3s-15.8-11.8-15.3-16.6c.1-1.2 2.3-3.1 2.9-4.8 3.1-9.2-11.7-33-20.8-38-7.2-3.9-4-4.3-19.1 4.7s-6.5 24.4.2 32.4c6.4 7.6 13.6 10.8 20.2 11.4l9.3 20.7z" fill="#facbb6"/><path d="m280.8 214.7c-3-7.4 2.7-16.6 12.7-20.7s20.5-1.4 23.5 5.9-7.1 18.4-12.7 20.7c-5.6 2.4-20.5 1.5-23.5-5.9z" fill="#facbb6"/><path d="m257.3 176.1s-5.1-.3-5.7 3.1 9.4 3.4 13.1.9z" fill="#facbb6"/><path d="m259.8 179.2c-1-6.2-7.6-10.8-7.2-16.8 3.2 0 5.2-3.9 3.8-7.2-.6-1.3-1.5-2.4-2.1-3.7s-.8-3 .2-3.7c.4-.3 1-.4 1.6-.5 4.7-.5 12.7.9 17-.7 4.1-1.5 8.5-4.5 8.1-9.5-.4-4.4-4.2-7.9-7.8-10.6-2-1.5-7.9-5.6-10-5.2-3.4.6-4.2 5-4.4 8.8-2.3-2.2-5.8-1.9-7.8-.1s-3 4.7-3.9 7.5-1.8 5.7-3.8 7.5c-1.9 1.7-4.8 3-4.5 6 .5 3.5 5 4.7 7.1 7.7-.5-.7-1 3.9-.7 4.7.9 2.4 3.1 4 4.8 5.8 3.4 3.8 5.1 7.7 9.6 10z" fill="#01384f"/><path d="m277.5 187.4s7.5 0 11.5-2.5c0 0-3.4 4.2-10.3 5.3z" fill="#f8bba9"/></g></svg>