<svg fill="none" height="1080" viewBox="0 0 1080 1080" width="1080" xmlns="http://www.w3.org/2000/svg"><path d="m899 745.11c-1.51.02-10.8-12.4-12.58-14.12-14.55-14.08-23.28-29.55-29.84-46.38-5-12.83-8.73-26.46-12.8-40.84-2.75-9.7-7.18-20.54-16.78-23.6-9.34-2.97-19.4 3.19-25.14 11.13-5.75 7.94-8.64 17.57-13.55 26.05-8.91 15.37-24.68 21.81-37.72 8.3-18.62-19.3-27.01-45.62-38.82-69.16-8.57-17.09-15.75-37.1-26.55-52.86-16.47-24.02-39.06-44.51-69.09-44.51-19.04 2.88-35.81 19.75-47.17 40.82-11.35 21.07-17.98 46.14-23.62 71.14-4.73 20.97-8.88 42.17-12.72 63.48-7.14-25.68-14.57-51.17-22.61-76.22-8.71-27.13-18.33-54.16-31.69-75.87s-31.05-37.72-48.81-37.61c-27.37 5.3-45.03 32.32-56.61 62.26-7.59 19.63-11.27 43.41-16.65 64.15-7.4 28.57-11.28 59.65-25.5 84.66-9.95 17.5-25.25 13.04-35.56-2.69-5.69-8.68-9.7-19-16.07-26.92s-16.42-13.08-24.5-8.09c-8.31 5.13-10.8 18.12-11.92 29.51-1.66 16.91-3.11 32.89-5.84 48.21-.59 3.34-1.25 6.64-1.98 9.91h285.76c-.2 1.22-.4 2.45-.59 3.67 0 0 378.95-4.42 378.95-4.42z" fill="#dce6ef" opacity=".31"/><path d="m784.66 706.27c-.74 14.73-16.77 40.48-31.5 39.74s-22.59-27.7-21.84-42.43c.74-14.73 16.43-88.45 31.16-87.7 14.72.74 22.92 75.66 22.18 90.39z" fill="#486be3" opacity=".77"/><path d="m754.34 745.22c-.01 0-.02 0-.02 0-.21-.01-.38-.2-.36-.41l7.43-119.38c.01-.21.18-.39.41-.36.21.01.38.2.36.41l-7.43 119.38c-.02.2-.19.36-.39.36z" fill="#0b4870"/><path d="m750.94 703.2c-3.35 7.37-5.91 15.1-7.45 23.16-.78 4.08-1.28 8.51.57 12.24 2.02 4.07 6.5 6.44 10.98 7.18 10.95 1.8 21.9-4.91 28.32-13.96s9.2-20.12 11.75-30.91c2.01-8.5 3.98-17.13 7.77-25.05 1.62-3.4 11.13-16.51 6.63-19.91-6.15-4.83-23.95.42-35.35 12.88-9.4 10.24-17.48 21.77-23.22 34.37z" fill="#486be3" opacity=".77"/><path d="m755.04 746.16c-.03 0-.06 0-.1-.01-.21-.05-.33-.27-.28-.47.13-.52 13.62-51.91 45.25-81.17.16-.14.4-.14.55.02s.14.4-.02.55c-31.47 29.1-44.89 80.28-45.02 80.79-.04.18-.2.29-.38.29z" fill="#0b4870"/><path d="m828.37 691.07c-1.13 2.03-3.25 3.41-5.18 4.49-2.37 1.34-4.9 2.51-7.35 3.65-3.14 1.46-6.38 2.97-9.38 4.85-2.18 1.37-4.12 2.92-5.75 4.58 2.57-5.84 5.58-10.94 9.12-15.5 4.66-6 9.44-9.04 14.23-9.04.11 0 .22 0 .33.01 1.48.04 2.63.41 3.42 1.09 1.63 1.39 1.56 4.07.56 5.87z" fill="#486be3" opacity=".77"/><path d="m833.71 724.34c-1.89 1.35-4.4 1.69-6.6 1.85-2.72.19-5.51.17-8.2.16-3.46-.02-7.04-.05-10.55.37-2.56.31-4.98.88-7.16 1.68 4.82-4.18 9.72-7.51 14.87-10.11 6.78-3.43 12.4-4.13 16.73-2.08.1.05.2.1.3.15 1.32.67 2.2 1.49 2.63 2.45.86 1.94-.35 4.34-2.02 5.53z" fill="#486be3" opacity=".77"/><path d="m821.11 740.72c-1.57-.22-2.98-1.22-4.15-2.18-1.44-1.18-2.82-2.49-4.15-3.77-1.71-1.63-3.48-3.32-5.42-4.76-1.42-1.05-2.89-1.9-4.35-2.52 4.36.18 8.35.82 12.14 1.94 4.98 1.47 8.1 3.76 9.29 6.8.03.07.05.14.08.21.34.95.39 1.77.16 2.45-.48 1.39-2.21 2.02-3.6 1.83z" fill="#486be3" opacity=".77"/><path d="m785.27 746.46c-.2-.02-.39-.17-.39-.39 0-.32.59-32 38.77-58.55.18-.12.42-.08.54.1s.08.42-.1.54c-37.85 26.32-38.44 57.6-38.44 57.91.01.21-.16.39-.38.39z" fill="#0b4870"/><path d="m785.27 746.46c-.06 0-.11-.01-.17-.04-.2-.09-.28-.32-.19-.52.12-.25 12.28-25.52 44.17-25.52.22 0 .39.17.39.39s-.17.39-.39.39c-31.38 0-43.35 24.82-43.46 25.07-.06.14-.2.23-.35.23z" fill="#0b4870"/><path d="m821.83 737.51c-.08 0-.16-.03-.23-.08-12.62-9.52-18.83-9.24-18.88-9.23-.22.02-.4-.15-.42-.36-.01-.21.15-.4.36-.42.26-.03 6.49-.35 19.41 9.39.17.13.21.37.08.55-.08.09-.2.15-.32.15z" fill="#0b4870"/><path d="m333.35 699.96c-5.55-6.41-12.58-11.93-14.8-20.02-1.62-5.91-.34-12.16.29-18.25s.41-12.83-3.53-17.51c-3.25-3.86-8.38-5.54-13.31-6.6s-10.08-1.73-14.46-4.24c-7.11-4.08-5.69-11.01-9.51-17.09-4.28-6.82-14.25-15.53-22.79-11-9.04 4.8-7.61 19.37-1.6 25.8 3.99 4.27 9.1 8.36 9.69 14.18.88 8.75-9.14 16.63-6.39 24.99 2.04 6.17 9.81 8.29 13.66 13.53 3.8 5.19 3.03 12.45.8 18.48-2.24 6.03-5.76 11.6-7.15 17.87-2.85 12.84 7.23 21.71 18.71 24.58 10.55 2.63 33.3 1.39 33.3 1.39 8.12-2.84 17.12-9.97 21.59-17.77 3.37-5.89 3.84-13.35 1.23-19.62-1.35-3.22-3.41-6.05-5.73-8.72z" fill="#486be3"/><path d="m308.43 746.13c-.2 0-.38-.16-.39-.37-4.17-65.77-42.62-125.85-43.01-126.45-.12-.18-.07-.42.12-.54.18-.12.42-.07.54.12.39.6 38.95 60.86 43.14 126.82.01.21-.15.4-.36.41-.02.01-.03.01-.04.01z" fill="#0b4870"/><path d="m230.76 700.04c.6-.51 1.47-.79 2.59-.82h.25c3.61 0 7.23 2.3 10.76 6.83 2.68 3.45 4.95 7.31 6.89 11.72-1.23-1.26-2.7-2.43-4.35-3.46-2.26-1.42-4.72-2.56-7.09-3.67-1.85-.86-3.76-1.75-5.55-2.76-1.46-.82-3.06-1.87-3.92-3.4-.76-1.36-.81-3.39.42-4.44z" fill="#486be3"/><path d="m224.78 725.45c.32-.72.99-1.34 1.99-1.85.07-.04.15-.07.22-.11 3.27-1.55 7.52-1.02 12.65 1.57 3.9 1.97 7.6 4.49 11.25 7.65-1.65-.61-3.48-1.04-5.41-1.27-2.66-.32-5.36-.3-7.98-.28-2.04.01-4.15.03-6.2-.12-1.67-.12-3.56-.38-4.99-1.4-1.28-.9-2.19-2.72-1.53-4.19z" fill="#486be3"/><path d="m233.1 740.65c-.18-.51-.14-1.13.12-1.85.02-.05.04-.11.06-.16.9-2.3 3.26-4.03 7.03-5.14 2.86-.85 5.88-1.33 9.18-1.47-1.11.47-2.22 1.11-3.29 1.91-1.47 1.09-2.81 2.36-4.1 3.6-1.01.96-2.05 1.96-3.14 2.85-.88.72-1.95 1.48-3.14 1.65-1.05.13-2.35-.35-2.72-1.39z" fill="#486be3"/><path d="m262.92 746.46c-.21 0-.39-.17-.39-.39 0-.24-.47-23.86-29.02-43.71-.18-.12-.22-.37-.1-.54.12-.18.37-.22.54-.1 28.91 20.1 29.36 44.11 29.36 44.35.01.21-.17.39-.39.39.01 0 .01 0 0 0z" fill="#0b4870"/><path d="m262.93 746.46c-.15 0-.29-.08-.35-.22-.09-.19-9.12-18.9-32.78-18.9-.22 0-.39-.17-.39-.39s.17-.39.39-.39c24.17 0 33.39 19.16 33.48 19.35.09.2.01.43-.19.52-.05.01-.11.03-.16.03z" fill="#0b4870"/><path d="m235.28 739.69c-.12 0-.23-.05-.31-.16-.13-.17-.1-.42.08-.55 9.79-7.39 14.54-7.13 14.74-7.12.21.02.38.2.36.42-.02.21-.2.39-.42.36-.05 0-4.71-.2-14.21 6.96-.08.07-.16.09-.24.09z" fill="#0b4870"/><path d="m648.76 729.96h-274.18c-6.04 0-10.95-4.91-10.95-10.95v-369c0-6.04 4.91-10.95 10.95-10.95h81.95v3h-81.95c-4.38 0-7.95 3.57-7.95 7.95v369c0 4.38 3.57 7.95 7.95 7.95h274.18c4.38 0 7.95-3.57 7.95-7.95v-369c0-4.38-3.57-7.95-7.95-7.95h-81.93v-3h81.93c6.04 0 10.95 4.91 10.95 10.95v369c0 6.03-4.91 10.95-10.95 10.95z" fill="#486be3"/><path d="m637.32 710.56h-251.3c-2.13 0-3.86-1.73-3.86-3.86v-344.38c0-2.13 1.73-3.86 3.86-3.86h251.3c2.13 0 3.86 1.73 3.86 3.86v344.38c0 2.13-1.73 3.86-3.86 3.86z" fill="#f2f2f2"/><path d="m568.13 368.68h-112.92v-36.95h32.69c.22-12.92 10.8-23.37 23.77-23.37s23.55 10.45 23.77 23.37h32.69zm-109.92-3h106.92v-30.95h-32.82l.1-1.98c.01-.2.03-.41.03-.62 0-11.45-9.32-20.77-20.77-20.77s-20.77 9.32-20.77 20.77c0 .21.02.42.03.62l.1 1.98h-32.82z" fill="#486be3"/><path d="m511.67 346.14c-7.72 0-14.01-6.28-14.01-14.01s6.28-14.01 14.01-14.01 14.01 6.28 14.01 14.01-6.29 14.01-14.01 14.01zm0-25.01c-6.07 0-11.01 4.94-11.01 11.01s4.94 11.01 11.01 11.01 11.01-4.94 11.01-11.01-4.94-11.01-11.01-11.01z" fill="#486be3"/><path d="m906 787.86h-732c-11.6 0-21-9.4-21-21s9.4-21 21-21h732c11.6 0 21 9.4 21 21s-9.4 21-21 21z" fill="#d3d3d3"/><g fill="#0b4870"><path d="m458.08 456.21h-43.27v-43.27h43.27zm-42.27-1h41.27v-41.27h-41.27z"/><path d="m437.87 446.67-14.3-11.23 2.47-3.14 11.56 9.07 25.03-24.11 2.77 2.88z"/><path d="m615.6 425.44h-137.73c-.9 0-1.63-.73-1.63-1.63s.73-1.63 1.63-1.63h137.73c.9 0 1.63.73 1.63 1.63s-.73 1.63-1.63 1.63z"/><path d="m615.6 432.62h-137.73c-.9 0-1.63-.73-1.63-1.63s.73-1.63 1.63-1.63h137.73c.9 0 1.63.73 1.63 1.63s-.73 1.63-1.63 1.63z"/><path d="m615.6 439.79h-137.73c-.9 0-1.63-.73-1.63-1.63s.73-1.63 1.63-1.63h137.73c.9 0 1.63.73 1.63 1.63s-.73 1.63-1.63 1.63z"/><path d="m615.6 446.97h-137.73c-.9 0-1.63-.73-1.63-1.63s.73-1.63 1.63-1.63h137.73c.9 0 1.63.73 1.63 1.63s-.73 1.63-1.63 1.63z"/><path d="m458.08 524.26h-43.27v-43.27h43.27zm-42.27-1h41.27v-41.27h-41.27z"/><path d="m437.87 514.72-14.3-11.23 2.47-3.14 11.56 9.07 25.03-24.11 2.77 2.88z"/><path d="m615.6 493.49h-137.73c-.9 0-1.63-.73-1.63-1.63s.73-1.63 1.63-1.63h137.73c.9 0 1.63.73 1.63 1.63s-.73 1.63-1.63 1.63z"/><path d="m615.6 500.67h-137.73c-.9 0-1.63-.73-1.63-1.63s.73-1.63 1.63-1.63h137.73c.9 0 1.63.73 1.63 1.63s-.73 1.63-1.63 1.63z"/><path d="m615.6 507.84h-137.73c-.9 0-1.63-.73-1.63-1.63s.73-1.63 1.63-1.63h137.73c.9 0 1.63.73 1.63 1.63s-.73 1.63-1.63 1.63z"/><path d="m615.6 515.02h-137.73c-.9 0-1.63-.73-1.63-1.63s.73-1.63 1.63-1.63h137.73c.9 0 1.63.73 1.63 1.63s-.73 1.63-1.63 1.63z"/><path d="m458.08 592.31h-43.27v-43.27h43.27zm-42.27-1h41.27v-41.27h-41.27z"/><path d="m437.87 582.77-14.3-11.23 2.47-3.14 11.56 9.07 25.03-24.11 2.77 2.88z"/><path d="m615.6 561.54h-137.73c-.9 0-1.63-.73-1.63-1.63s.73-1.63 1.63-1.63h137.73c.9 0 1.63.73 1.63 1.63s-.73 1.63-1.63 1.63z"/><path d="m615.6 568.72h-137.73c-.9 0-1.63-.73-1.63-1.63s.73-1.63 1.63-1.63h137.73c.9 0 1.63.73 1.63 1.63s-.73 1.63-1.63 1.63z"/><path d="m615.6 575.89h-137.73c-.9 0-1.63-.73-1.63-1.63s.73-1.63 1.63-1.63h137.73c.9 0 1.63.73 1.63 1.63s-.73 1.63-1.63 1.63z"/><path d="m615.6 583.07h-137.73c-.9 0-1.63-.73-1.63-1.63s.73-1.63 1.63-1.63h137.73c.9 0 1.63.73 1.63 1.63s-.73 1.63-1.63 1.63z"/><path d="m458.08 660.36h-43.27v-43.27h43.27zm-42.27-1h41.27v-41.27h-41.27z"/><path d="m437.87 650.82-14.3-11.23 2.47-3.14 11.56 9.07 25.03-24.11 2.77 2.88z"/><path d="m615.6 629.59h-137.73c-.9 0-1.63-.73-1.63-1.63s.73-1.63 1.63-1.63h137.73c.9 0 1.63.73 1.63 1.63s-.73 1.63-1.63 1.63z"/><path d="m615.6 636.77h-137.73c-.9 0-1.63-.73-1.63-1.63s.73-1.63 1.63-1.63h137.73c.9 0 1.63.73 1.63 1.63s-.73 1.63-1.63 1.63z"/><path d="m615.6 643.94h-137.73c-.9 0-1.63-.73-1.63-1.63s.73-1.63 1.63-1.63h137.73c.9 0 1.63.73 1.63 1.63s-.73 1.63-1.63 1.63z"/><path d="m615.6 651.12h-137.73c-.9 0-1.63-.73-1.63-1.63s.73-1.63 1.63-1.63h137.73c.9 0 1.63.73 1.63 1.63s-.73 1.63-1.63 1.63z"/></g><path d="m622.57 581.32c2.24-1.59 4.3-3.43 5.25-3.97.4-.22 1.64-.5 1.99-.61 1.04-.31 2.7-.63 3.42-1.44l3.08-3.38c1.46-1.66 3.37-2.21 5.02-.75 1.79 1.58 1.26 3.83-.52 5.43l-2.11 2.4c-1.42 1.28-2.13 3.08-2.92 4.82-1.6 3.55-5.23 6.22-8.33 8.09-1.95 1.17-4.9.34-8.77-.98-1.9-.65-4.65-2.22-2.28-3.11 1.99-.74 7.97.87 10.61-4.64.13-.27.41-.99.14-1.24-.8-.75-2.57.95-3.75 1.49-1.66.76-2.99.5-3.4-.11-.44-.64.97-.86 2.57-2z" fill="#fab9af"/><path d="m706.73 460.43s-4.94 59.3-22.67 79.31c-10.68 12.06-36.81 32.74-42.86 37.48-.77.6-1.85.63-2.65.07-.51-.36-1.09-.8-1.59-1.24-.51-.45-1.1-1.1-1.63-1.72-.88-1.03-.84-2.56.08-3.55 6.78-7.37 33.38-36.58 36.62-44.26 3.71-8.81 10.1-60.82 15.97-68.35 5.87-7.55 17.12-9.18 18.73 2.26z" fill="#486be3"/><path d="m684.34 558.39 15.12-106.2 40.77-5.6 21.21 111.04z" fill="#fab9af"/><path d="m715.86 722.96-.04 11.97c-.01 2.44.32 4.86.98 7.2l1.04 3.69c.85 3.03-1.42 6.03-4.57 6.02-8.15-.03-22.09-.01-25.68 0-.59 0-1.16-.4-1.21-.98-.3-3.49 9.79-5.84 17.4-8.78 5.79-2.24 5.48-12.65 4.77-18.73-.27-2.3 1.65-4.25 3.95-4.06 1.9.16 3.37 1.76 3.36 3.67z" fill="#fab9af"/><path d="m771.9 719.6 4.12 13.69c.18.61.45 1.18.81 1.7l2.92 4.34c1.86 2.76.52 6.52-2.66 7.49 0 0-5.9 2.07-11.97 4.07-6.22 2.04-14.05.34-14.05-1.31 0-3.65 3.4-.75 9.1-4.56 1.91-1.28 3.88-2.61 5.64-3.99 4.9-3.85.62-13.59-2.38-19.08-1.08-1.97.07-4.42 2.27-4.89l1.42-.3c2.08-.43 4.16.8 4.78 2.84z" fill="#fab9af"/><path d="m729.77 559.42-45.19-3.79s-4.55 32.89 6.87 92.42c5.36 27.92 16.52 81.27 16.52 81.27 2.77 1.21 5.58 1.51 8.44.8 0 0 .85-23.53 1.37-48.88.5-24.3.63-50.27 2.18-58.77 3.16-17.36 9.81-63.05 9.81-63.05z" fill="#0b4870"/><path d="m720.44 559.99c-4.67 25.04-15.09 62.48 4.99 97.65 20.07 35.17 41.16 71.74 41.16 71.74 2.72.11 5.18-.87 7.47-2.61 0 0-3.52-15.94-8.61-34.56-5.82-21.3-13.19-46.35-11.09-59.41 3.94-24.48 8.46-57.08 7.09-72.92-1.38-15.84-38.56-13.05-41.01.11z" fill="#0b4870"/><path d="m682.78 555.69 16.68-103.5 40.78-5.6 21.91 109.29c.41 2.05-.92 4.05-2.98 4.44-7.59 1.44-25.9 4.44-46.4 4.44-15.3 0-23.9-2.97-27.81-4.86-1.58-.76-2.46-2.47-2.18-4.21z" fill="#f2f2f2"/><path d="m763.49 595.75c.62-2.67.96-5.42 1.31-6.45.15-.43.9-1.46 1.09-1.78.58-.92 1.61-2.26 1.61-3.34l.08-4.57c0-2.21 1.07-3.88 3.27-3.88 2.39 0 3.48 2.04 3.2 4.42v3.2c-.22 1.9.44 3.72 1 5.55 1.14 3.72.19 8.12-.9 11.58-.68 2.17-3.45 3.5-7.22 5.06-1.85.77-4.96 1.41-3.77-.82 1-1.87 6.55-4.61 4.89-10.5-.08-.29-.34-1.02-.71-1.03-1.1-.03-1.3 2.41-1.83 3.6-.74 1.67-1.91 2.35-2.63 2.17-.75-.2.16-1.3.61-3.21z" fill="#fab9af"/><path d="m727.5 453.04c0 7.46 1.36 14.84 3.9 21.85 4.98 13.71 12.46 39.63 8.01 62.47-6.39 32.89-14.62 46.18-3.96 53.85 10.66 7.66 31.1-5.12 31.69-9.39.59-4.26-3.98-56.63-9.15-79.32-5.18-22.69-19.68-55.31-19.68-55.31l-6.14.66c-2.66.28-4.67 2.52-4.67 5.19z" fill="#486be3"/><path d="m746.66 449.41s35.52 47.75 35.45 74.48c-.04 16.11-5.96 48.9-7.36 56.46-.18.96-.96 1.7-1.94 1.8-.62.07-1.35.12-2.01.12-.67 0-1.55-.1-2.36-.21-1.34-.19-2.32-1.36-2.29-2.72.21-10.01.85-49.51-1.81-57.42-3.05-9.07-32.65-52.29-33.23-61.83-.59-9.53 6.78-18.2 15.55-10.68z" fill="#486be3"/><path d="m710.52 450.67s-7.07 15.28-4.61 37.24c2.47 21.96 8.18 88.83-11.8 98.93-6.33 3.2-20.78-10.96-20.78-16.22s4.82-22.84 9.39-38.83 15.58-79.45 15.58-79.45z" fill="#486be3"/><path d="m716.21 403.3c9.1 0 12.5 6.48 12.67 18.46.07 4.49-1.95 8.93-3.58 11.77-1.21 2.11-1.54 4.61-.85 6.94l2 6.76c1.36 6.27-1.62 9.72-6.02 10.97-2.18.62-4.79.14-6.69-1.09-2.26-1.46-2.45-4.61-2.03-7.27l.52-1.93c.7-2.6-.81-5.4-3.44-5.97-7.01-1.53-8.01-8.84-9.89-20.18-1.96-11.82 8.21-18.46 17.31-18.46z" fill="#fab9af"/><path d="m695.02 398.04 5.22 1.59c1.92.58 3.96.6 5.89.04l10.42-3.02c6.31 0 16.74 3.56 15.42 12.67l-1.16 6.44c-.46 2.57-2.61 4.5-5.22 4.72-.24.89-1.05 1.51-1.97 1.51-1.13 0-2.04-.91-2.04-2.04 0-2.91-2.04-5.38-4.87-6.02-3.48-.78-7.19-.97-11.08.08-7.24 1.95-14.88-2.54-15.6-10.01-.05-.47-.07-.95-.07-1.44-.01-3.02 2.48-5.23 5.06-4.52z" fill="#0b4870"/><path d="m723.87 421.98c0 2.78 1.03 5.03 3.71 5.03s4.39-3.82 4.39-6.6-1.72-3.46-4.39-3.46c-2.68 0-3.71 2.26-3.71 5.03z" fill="#fab9af"/><path d="m724.97 434.18s-6.8 9.34-15.25 8.08c0 0 1.76.84 2.18 2.2 0 0 8.03-.59 13.07-10.28z" fill="#e8948b"/><path d="m717.07 743.07s-6.32 2.79-12.21-1.55c0 0-14.54 2.33-18.71 6.63s-1.15 6.43 4.09 6.34c5.23-.09 25.45-.3 25.45-.3s5.19-3.17 1.38-11.12z" fill="#0b4870"/><path d="m777.83 736.01s-3.08 4.05-9.98 1.65c0 0-15.34 7.01-18.05 12.35s.8 6.48 5.78 4.85 24.22-7.81 24.22-7.81 4.02-4.58-1.97-11.04z" fill="#0b4870"/></svg>